# File created by Blade
# Date/Time:  Tue Jan 27 18:35:03 2015
# Frame Rate: 120.000 fps
#------------------------------------------------------
:FULLY-SPECIFIED
:DEGREES
1197
root -3.880996 31.571206 -1.945248 -13.774040 17.467792 -15.698907
Spine 14.806929 -14.775847 -4.574975
Head 9.064133 -2.328180 18.959047
LeftShoulder -12.938970 12.084213 19.758883
LeftArm 31.664360 -23.547439 -77.619270
LeftForeArm 120.837103 -0.000000 136.296790
LeftHand 9.821550 -0.000000 -3.131136
LeftHandThumb1 -26.253704 0.000000 33.147579
RightShoulder -16.828948 -10.092824 -4.179860
RightArm 1.214119 -33.453161 85.205447
RightForeArm -23.449618 0.000000 29.867223
RightHand -13.841267 0.000000 12.062069
RightHandThumb1 -24.326973 -0.000000 -32.862282
LeftUpLeg -4.222710 2.427183 9.457223
LeftLeg 35.590296 -0.000000 -0.000000
LeftFoot -30.695425 7.626527 -18.064669
LeftToeBase 10.665091 -0.000000 -0.000000
RightUpLeg -88.632278 5.242354 23.682594
RightLeg 84.626436 -0.000000 -0.000000
RightFoot 3.837496 -13.231534 14.999207
RightToeBase 5.327020 -0.000000 -0.000000
1198
root -3.886876 31.566537 -1.943939 -13.757869 17.486153 -15.767177
Spine 14.787796 -14.697775 -4.469703
Head 8.966139 -2.486956 18.974348
LeftShoulder -13.025050 12.068922 19.806364
LeftArm 31.867983 -23.117365 -77.642822
LeftForeArm 121.046845 -0.000000 136.115515
LeftHand 9.837478 -0.000000 -3.313157
LeftHandThumb1 -26.253704 0.000000 33.147579
RightShoulder -16.819756 -10.091269 -4.230515
RightArm 1.191167 -33.424734 85.214741
RightForeArm -23.381201 0.000000 29.994194
RightHand -13.863281 -0.000000 12.058006
RightHandThumb1 -24.326973 -0.000000 -32.862282
LeftUpLeg -4.310031 1.944479 9.389333
LeftLeg 35.653610 -0.000000 -0.000000
LeftFoot -30.876185 8.188867 -18.184639
LeftToeBase 10.707512 -0.000000 -0.000000
RightUpLeg -88.657513 5.253554 23.741334
RightLeg 84.649667 -0.000000 -0.000000
RightFoot 3.819895 -13.009380 15.133496
RightToeBase 5.185964 -0.000000 -0.000000
1199
root -3.891124 31.561204 -1.941651 -13.754333 17.489822 -15.833412
Spine 14.762002 -14.603823 -4.356200
Head 8.940128 -2.648537 18.962644
LeftShoulder -13.075521 12.044080 19.870082
LeftArm 32.031126 -22.687339 -77.671919
LeftForeArm 121.360093 -0.000000 135.957493
LeftHand 9.882619 0.000000 -3.336372
LeftHandThumb1 -26.253704 0.000000 33.147579
RightShoulder -16.795573 -10.109290 -4.302155
RightArm 1.198587 -33.435288 85.223482
RightForeArm -23.376160 -0.000000 30.072159
RightHand -13.840968 -0.000000 12.115627
RightHandThumb1 -24.326973 -0.000000 -32.862282
LeftUpLeg -4.365545 1.487743 9.329748
LeftLeg 35.706010 -0.000000 -0.000000
LeftFoot -31.006714 8.782852 -18.188276
LeftToeBase 10.535335 -0.000000 -0.000000
RightUpLeg -88.655919 5.270152 23.808455
RightLeg 84.665773 -0.000000 -0.000000
RightFoot 3.791801 -12.827802 15.190828
RightToeBase 5.138531 -0.000000 -0.000000
1200
root -3.894327 31.555660 -1.939614 -13.755414 17.459058 -15.895296
Spine 14.740274 -14.479125 -4.227599
Head 8.905949 -2.812349 18.918691
LeftShoulder -13.114419 11.984090 19.933010
LeftArm 32.136467 -22.240747 -77.662074
LeftForeArm 121.585344 0.000000 135.802478
LeftHand 9.855006 0.000000 -3.378426
LeftHandThumb1 -26.253704 0.000000 33.147579
RightShoulder -16.778879 -10.135484 -4.374007
RightArm 1.229595 -33.451658 85.218497
RightForeArm -23.421151 -0.000000 30.144157
RightHand -13.800130 -0.000000 12.062156
RightHandThumb1 -24.326973 -0.000000 -32.862282
LeftUpLeg -4.407755 1.060435 9.285663
LeftLeg 35.776001 -0.000000 -0.000000
LeftFoot -31.145833 9.277164 -18.258704
LeftToeBase 10.394919 -0.000000 -0.000000
RightUpLeg -88.631970 5.305110 23.900044
RightLeg 84.665413 -0.000000 -0.000000
RightFoot 3.774731 -12.735615 15.254651
RightToeBase 5.181315 -0.000000 -0.000000
1201
root -3.895892 31.550699 -1.934834 -13.786342 17.401315 -15.952378
Spine 14.743908 -14.330677 -4.100266
Head 8.890692 -2.962015 18.861016
LeftShoulder -13.119125 11.932733 19.971133
LeftArm 32.234020 -21.825936 -77.599837
LeftForeArm 121.890007 -0.000000 135.718270
LeftHand 9.884702 -0.000000 -3.714699
LeftHandThumb1 -26.253704 0.000000 33.147579
RightShoulder -16.771442 -10.170036 -4.432691
RightArm 1.297828 -33.519454 85.168784
RightForeArm -23.436712 -0.000000 30.209648
RightHand -13.833344 0.000000 12.006974
RightHandThumb1 -24.326973 -0.000000 -32.862282
LeftUpLeg -4.409416 0.682096 9.255723
LeftLeg 35.872302 -0.000000 -0.000000
LeftFoot -31.301536 9.635327 -18.454455
LeftToeBase 10.334289 -0.000000 -0.000000
RightUpLeg -88.568796 5.352361 23.985256
RightLeg 84.667720 -0.000000 -0.000000
RightFoot 3.774064 -12.683448 15.340808
RightToeBase 5.285687 -0.000000 -0.000000
1202
root -3.897547 31.547331 -1.930337 -13.812243 17.303400 -16.000127
Spine 14.735840 -14.140649 -3.972323
Head 8.904360 -3.117185 18.806768
LeftShoulder -13.066988 11.842427 20.026311
LeftArm 32.245466 -21.453054 -77.514063
LeftForeArm 122.100364 -0.000000 135.624949
LeftHand 9.788140 -0.000000 -3.673738
LeftHandThumb1 -26.253704 0.000000 33.147579
RightShoulder -16.733790 -10.169174 -4.481525
RightArm 1.314195 -33.583823 85.124285
RightForeArm -23.471843 -0.000000 30.277862
RightHand -13.878626 -0.000000 12.096662
RightHandThumb1 -24.326973 -0.000000 -32.862282
LeftUpLeg -4.393114 0.452316 9.270739
LeftLeg 35.933220 -0.000000 -0.000000
LeftFoot -31.382775 9.869243 -18.502605
LeftToeBase 10.187477 -0.000000 -0.000000
RightUpLeg -88.468466 5.422484 24.097497
RightLeg 84.629449 -0.000000 -0.000000
RightFoot 3.819489 -12.670708 15.357701
RightToeBase 5.253450 -0.000000 -0.000000
